<?xml version="1.0" encoding="utf-8"?>
<!-- Generator: Adobe Illustrator 16.0.0, SVG Export Plug-In . SVG Version: 6.00 Build 0)  -->
<!DOCTYPE svg PUBLIC "-//W3C//DTD SVG 1.1//EN" "http://www.w3.org/Graphics/SVG/1.1/DTD/svg11.dtd">
<svg version="1.1" id="Layer_1" xmlns="http://www.w3.org/2000/svg" xmlns:xlink="http://www.w3.org/1999/xlink" x="0px" y="0px"
	 width="869.6px" height="245px" viewBox="0 0 869.6 245" enable-background="new 0 0 869.6 245" xml:space="preserve">
<line fill="none" stroke="#CCCCCC" stroke-miterlimit="10" x1="46.6" y1="72.5" x2="589.6" y2="72.5"/>
<line fill="none" stroke="#CCCCCC" stroke-miterlimit="10" x1="46.6" y1="116.5" x2="589.6" y2="116.5"/>
<line fill="none" stroke="#CCCCCC" stroke-miterlimit="10" x1="46.6" y1="160.5" x2="589.6" y2="160.5"/>
<line fill="none" stroke="#CCCCCC" stroke-miterlimit="10" x1="46.6" y1="204.5" x2="589.6" y2="204.5"/>
<g>
	<path fill="#6B0B66" d="M37.281,206.35c0,3.096-1.148,4.805-3.166,4.805c-1.779,0-2.984-1.666-3.012-4.678
		c0-3.055,1.316-4.734,3.166-4.734C36.188,201.741,37.281,203.45,37.281,206.35z M32.336,206.49c0,2.367,0.729,3.712,1.849,3.712
		c1.261,0,1.863-1.472,1.863-3.796c0-2.241-0.574-3.713-1.849-3.713C33.121,202.693,32.336,204.01,32.336,206.49z"/>
</g>
<g>
	<path fill="#6B0B66" d="M17.228,166v-0.756l0.966-0.938c2.325-2.214,3.376-3.391,3.39-4.764c0-0.924-0.448-1.779-1.807-1.779
		c-0.826,0-1.513,0.42-1.933,0.771l-0.392-0.869c0.63-0.532,1.527-0.924,2.577-0.924c1.961,0,2.788,1.345,2.788,2.646
		c0,1.682-1.219,3.041-3.138,4.889l-0.728,0.672v0.027h4.09V166H17.228z"/>
	<path fill="#6B0B66" d="M29.844,157.932H26.37l-0.35,2.34c0.21-0.028,0.406-0.057,0.742-0.057c0.701,0,1.401,0.154,1.961,0.49
		c0.714,0.406,1.303,1.191,1.303,2.339c0,1.779-1.415,3.11-3.39,3.11c-0.995,0-1.835-0.28-2.269-0.562l0.308-0.938
		c0.378,0.224,1.121,0.504,1.947,0.504c1.163,0,2.157-0.757,2.157-1.976c-0.014-1.177-0.798-2.017-2.619-2.017
		c-0.519,0-0.924,0.056-1.261,0.099l0.588-4.371h4.356v1.037H29.844z"/>
	<path fill="#6B0B66" d="M37.643,161.35c0,3.096-1.148,4.805-3.166,4.805c-1.779,0-2.984-1.666-3.012-4.678
		c0-3.055,1.316-4.734,3.166-4.734C36.55,156.741,37.643,158.45,37.643,161.35z M32.698,161.49c0,2.367,0.729,3.712,1.849,3.712
		c1.261,0,1.863-1.472,1.863-3.796c0-2.241-0.574-3.713-1.849-3.713C33.482,157.693,32.698,159.01,32.698,161.49z"/>
</g>
<g>
	<path fill="#6B0B66" d="M22.663,112.932h-3.474l-0.35,2.339c0.21-0.028,0.406-0.056,0.742-0.056c0.701,0,1.401,0.154,1.961,0.49
		c0.714,0.406,1.303,1.191,1.303,2.339c0,1.779-1.415,3.11-3.39,3.11c-0.995,0-1.835-0.28-2.269-0.561l0.308-0.938
		c0.378,0.224,1.121,0.504,1.947,0.504c1.163,0,2.157-0.756,2.157-1.975c-0.014-1.177-0.798-2.017-2.619-2.017
		c-0.519,0-0.924,0.056-1.261,0.098l0.588-4.371h4.356L22.663,112.932L22.663,112.932z"/>
	<path fill="#6B0B66" d="M30.46,116.35c0,3.096-1.148,4.805-3.166,4.805c-1.779,0-2.984-1.667-3.012-4.679
		c0-3.054,1.316-4.734,3.166-4.734C29.368,111.741,30.46,113.45,30.46,116.35z M25.516,116.49c0,2.367,0.729,3.712,1.849,3.712
		c1.261,0,1.863-1.471,1.863-3.796c0-2.241-0.574-3.712-1.849-3.712C26.3,112.693,25.516,114.01,25.516,116.49z"/>
	<path fill="#6B0B66" d="M37.643,116.35c0,3.096-1.148,4.805-3.166,4.805c-1.779,0-2.984-1.667-3.012-4.679
		c0-3.054,1.316-4.734,3.166-4.734C36.55,111.741,37.643,113.45,37.643,116.35z M32.698,116.49c0,2.367,0.729,3.712,1.849,3.712
		c1.261,0,1.863-1.471,1.863-3.796c0-2.241-0.574-3.712-1.849-3.712C33.482,112.693,32.698,114.01,32.698,116.49z"/>
</g>
<g>
	<path fill="#6B0B66" d="M23.139,66.895v0.812L19.174,76H17.9l3.95-8.054v-0.028h-4.455v-1.022L23.139,66.895L23.139,66.895z"/>
	<path fill="#6B0B66" d="M29.844,67.932H26.37l-0.35,2.339c0.21-0.028,0.406-0.056,0.742-0.056c0.701,0,1.401,0.154,1.961,0.49
		c0.714,0.406,1.303,1.191,1.303,2.339c0,1.779-1.415,3.11-3.39,3.11c-0.995,0-1.835-0.28-2.269-0.561l0.308-0.938
		c0.378,0.224,1.121,0.504,1.947,0.504c1.163,0,2.157-0.756,2.157-1.975c-0.014-1.177-0.798-2.017-2.619-2.017
		c-0.519,0-0.924,0.056-1.261,0.098l0.588-4.371h4.356v1.038H29.844z"/>
	<path fill="#6B0B66" d="M37.643,71.35c0,3.096-1.148,4.805-3.166,4.805c-1.779,0-2.984-1.667-3.012-4.679
		c0-3.054,1.316-4.734,3.166-4.734C36.55,66.741,37.643,68.45,37.643,71.35z M32.698,71.49c0,2.367,0.729,3.712,1.849,3.712
		c1.261,0,1.863-1.471,1.863-3.796c0-2.241-0.574-3.712-1.849-3.712C33.482,67.693,32.698,69.01,32.698,71.49z"/>
</g>
<g>
	<path fill="#6B0B66" d="M99.597,218.559h1.219v6.317c0,2.507-1.233,3.278-2.857,3.278c-0.448,0-0.995-0.098-1.303-0.225
		l0.182-0.994c0.252,0.098,0.616,0.182,1.022,0.182c1.093,0,1.737-0.49,1.737-2.34V218.559z"/>
	<path fill="#6B0B66" d="M106.556,228l-0.098-0.854h-0.042c-0.378,0.531-1.107,1.008-2.073,1.008c-1.373,0-2.073-0.967-2.073-1.946
		c0-1.64,1.457-2.535,4.076-2.521v-0.141c0-0.561-0.154-1.568-1.541-1.568c-0.63,0-1.289,0.195-1.765,0.504l-0.28-0.812
		c0.561-0.363,1.373-0.602,2.227-0.602c2.073,0,2.578,1.414,2.578,2.772v2.535c0,0.588,0.028,1.163,0.112,1.625L106.556,228
		L106.556,228z M106.374,224.54c-1.345-0.028-2.872,0.21-2.872,1.526c0,0.799,0.532,1.178,1.163,1.178
		c0.882,0,1.442-0.561,1.639-1.135c0.042-0.127,0.07-0.267,0.07-0.393V224.54z"/>
	<path fill="#6B0B66" d="M109.55,223.055c0-0.699-0.014-1.273-0.056-1.835h1.093l0.07,1.121h0.028
		c0.336-0.644,1.121-1.274,2.241-1.274c0.938,0,2.395,0.561,2.395,2.886V228h-1.232v-3.908c0-1.092-0.406-2.003-1.569-2.003
		c-0.812,0-1.443,0.574-1.653,1.261c-0.056,0.154-0.084,0.364-0.084,0.574V228h-1.233V223.055L109.55,223.055z"/>
	<path fill="#6B0B66" d="M122.993,226.15c0,0.701,0.014,1.317,0.056,1.85h-1.092l-0.07-1.105h-0.028
		c-0.322,0.545-1.037,1.26-2.241,1.26c-1.064,0-2.339-0.588-2.339-2.969v-3.965h1.233v3.754c0,1.289,0.392,2.157,1.513,2.157
		c0.826,0,1.401-0.573,1.625-1.121c0.07-0.182,0.112-0.405,0.112-0.63v-4.16h1.233v4.93H122.993z"/>
	<path fill="#6B0B66" d="M128.788,228l-0.098-0.854h-0.042c-0.378,0.531-1.107,1.008-2.073,1.008c-1.373,0-2.073-0.967-2.073-1.946
		c0-1.64,1.457-2.535,4.076-2.521v-0.141c0-0.561-0.154-1.568-1.541-1.568c-0.63,0-1.289,0.195-1.765,0.504l-0.28-0.812
		c0.561-0.363,1.373-0.602,2.227-0.602c2.073,0,2.578,1.414,2.578,2.772v2.535c0,0.588,0.028,1.163,0.112,1.625L128.788,228
		L128.788,228z M128.605,224.54c-1.345-0.028-2.871,0.21-2.871,1.526c0,0.799,0.532,1.178,1.163,1.178
		c0.882,0,1.442-0.561,1.639-1.135c0.042-0.127,0.07-0.267,0.07-0.393L128.605,224.54L128.605,224.54z"/>
	<path fill="#6B0B66" d="M131.782,223.335c0-0.798-0.014-1.485-0.056-2.114h1.079l0.042,1.33h0.056
		c0.308-0.91,1.051-1.484,1.877-1.484c0.14,0,0.238,0.014,0.351,0.041v1.164c-0.126-0.028-0.252-0.043-0.42-0.043
		c-0.869,0-1.485,0.658-1.653,1.584c-0.028,0.168-0.056,0.363-0.056,0.574V228h-1.219L131.782,223.335L131.782,223.335z"/>
	<path fill="#6B0B66" d="M137.158,221.221l1.485,4.006c0.154,0.447,0.322,0.979,0.434,1.387h0.028
		c0.126-0.406,0.266-0.924,0.434-1.415l1.345-3.978h1.303l-1.849,4.832c-0.882,2.326-1.485,3.516-2.325,4.245
		c-0.602,0.532-1.205,0.742-1.513,0.798l-0.308-1.037c0.308-0.098,0.714-0.293,1.079-0.602c0.336-0.268,0.756-0.743,1.037-1.373
		c0.056-0.126,0.098-0.225,0.098-0.294c0-0.07-0.028-0.168-0.084-0.322l-2.507-6.248L137.158,221.221L137.158,221.221z"/>
</g>
<g>
	<path fill="#6B0B66" d="M24.018,32.697l-5.321-16.301h2.273l2.54,8.029c0.701,2.201,1.306,4.184,1.741,6.095H25.3
		c0.459-1.886,1.137-3.942,1.862-6.07l2.757-8.054h2.249L26.34,32.697H24.018z"/>
	<path fill="#6B0B66" d="M35.843,17.702c0.024,0.726-0.508,1.306-1.354,1.306c-0.75,0-1.282-0.58-1.282-1.306
		c0-0.75,0.556-1.331,1.33-1.331C35.335,16.372,35.843,16.952,35.843,17.702z M33.473,32.697V20.991h2.128v11.706H33.473z"/>
	<path fill="#6B0B66" d="M38.84,30.52c0.629,0.411,1.742,0.847,2.806,0.847c1.548,0,2.273-0.774,2.273-1.741
		c0-1.016-0.604-1.572-2.177-2.153c-2.104-0.75-3.096-1.911-3.096-3.313c0-1.886,1.524-3.434,4.039-3.434
		c1.185,0,2.225,0.338,2.878,0.726L45.031,23c-0.459-0.29-1.306-0.677-2.394-0.677c-1.258,0-1.959,0.726-1.959,1.596
		c0,0.967,0.701,1.403,2.225,1.983c2.031,0.774,3.071,1.79,3.071,3.531c0,2.056-1.596,3.507-4.377,3.507
		c-1.282,0-2.467-0.314-3.289-0.798L38.84,30.52z"/>
	<path fill="#6B0B66" d="M51.076,17.702c0.024,0.726-0.508,1.306-1.354,1.306c-0.75,0-1.282-0.58-1.282-1.306
		c0-0.75,0.556-1.331,1.33-1.331C50.568,16.372,51.076,16.952,51.076,17.702z M48.706,32.697V20.991h2.128v11.706H48.706z"/>
	<path fill="#6B0B66" d="M56.928,17.629v3.362h3.047v1.62h-3.047v6.312c0,1.451,0.411,2.273,1.596,2.273
		c0.556,0,0.967-0.073,1.233-0.145l0.097,1.596c-0.411,0.169-1.064,0.29-1.886,0.29c-0.992,0-1.79-0.314-2.298-0.895
		c-0.604-0.629-0.822-1.669-0.822-3.047V22.61h-1.813v-1.62h1.813v-2.806L56.928,17.629z"/>
	<path fill="#6B0B66" d="M72.816,26.747c0,4.329-2.999,6.216-5.829,6.216c-3.168,0-5.611-2.322-5.611-6.022
		c0-3.918,2.564-6.216,5.805-6.216C70.543,20.725,72.816,23.168,72.816,26.747z M63.529,26.868c0,2.563,1.476,4.499,3.556,4.499
		c2.031,0,3.555-1.911,3.555-4.547c0-1.983-0.992-4.499-3.507-4.499C64.617,22.321,63.529,24.643,63.529,26.868z"/>
	<path fill="#6B0B66" d="M75.499,24.643c0-1.378-0.024-2.563-0.097-3.652h1.862l0.072,2.297h0.097
		c0.532-1.572,1.814-2.563,3.241-2.563c0.242,0,0.411,0.024,0.605,0.073v2.007c-0.218-0.048-0.436-0.073-0.726-0.073
		c-1.5,0-2.564,1.137-2.854,2.733c-0.048,0.291-0.097,0.629-0.097,0.992v6.24h-2.104L75.499,24.643L75.499,24.643z"/>
	<path fill="#6B0B66" d="M91.24,27.569l-1.693,5.127H87.37l5.539-16.301h2.54l5.562,16.301h-2.25l-1.741-5.127H91.24z
		 M96.585,25.925l-1.596-4.692c-0.363-1.064-0.605-2.031-0.847-2.975h-0.048c-0.242,0.967-0.508,1.959-0.822,2.951l-1.596,4.716
		H96.585z"/>
	<path fill="#6B0B66" d="M103.258,24.159c0-1.209-0.024-2.201-0.097-3.168h1.886l0.121,1.935h0.048
		c0.581-1.112,1.935-2.201,3.87-2.201c1.62,0,4.136,0.967,4.136,4.982v6.99h-2.128v-6.748c0-1.887-0.701-3.458-2.709-3.458
		c-1.402,0-2.491,0.992-2.854,2.177c-0.097,0.266-0.145,0.628-0.145,0.991v7.038h-2.128V24.159L103.258,24.159z"/>
	<path fill="#6B0B66" d="M123.16,32.697l-0.169-1.475h-0.072c-0.653,0.919-1.911,1.741-3.58,1.741c-2.37,0-3.579-1.669-3.579-3.362
		c0-2.83,2.515-4.377,7.038-4.354v-0.242c0-0.967-0.266-2.708-2.66-2.708c-1.088,0-2.225,0.338-3.047,0.871l-0.484-1.403
		c0.967-0.629,2.37-1.04,3.846-1.04c3.579,0,4.45,2.443,4.45,4.789v4.377c0,1.016,0.048,2.007,0.194,2.806H123.16z M122.845,26.723
		c-2.322-0.048-4.958,0.363-4.958,2.636c0,1.378,0.919,2.031,2.007,2.031c1.524,0,2.491-0.967,2.83-1.959
		c0.072-0.218,0.121-0.459,0.121-0.677V26.723z"/>
	<path fill="#6B0B66" d="M128.333,15.525h2.128v17.171h-2.128V15.525z"/>
	<path fill="#6B0B66" d="M134.814,20.991l2.563,6.917c0.266,0.774,0.556,1.693,0.75,2.394h0.048c0.217-0.701,0.459-1.596,0.75-2.442
		l2.322-6.869h2.249l-3.192,8.344c-1.523,4.015-2.563,6.07-4.015,7.328c-1.04,0.919-2.08,1.282-2.612,1.378l-0.532-1.79
		c0.532-0.169,1.233-0.508,1.862-1.04c0.581-0.459,1.306-1.282,1.79-2.37c0.097-0.218,0.169-0.387,0.169-0.508
		s-0.048-0.29-0.145-0.556l-4.329-10.787L134.814,20.991L134.814,20.991z"/>
	<path fill="#6B0B66" d="M147.992,17.629v3.362h3.047v1.62h-3.047v6.312c0,1.451,0.411,2.273,1.596,2.273
		c0.556,0,0.967-0.073,1.233-0.145l0.097,1.596c-0.411,0.169-1.064,0.29-1.886,0.29c-0.992,0-1.79-0.314-2.298-0.895
		c-0.604-0.629-0.822-1.669-0.822-3.047V22.61h-1.813v-1.62h1.813v-2.806L147.992,17.629z"/>
	<path fill="#6B0B66" d="M155.803,17.702c0.024,0.726-0.508,1.306-1.354,1.306c-0.75,0-1.282-0.58-1.282-1.306
		c0-0.75,0.556-1.331,1.33-1.331C155.295,16.372,155.803,16.952,155.803,17.702z M153.433,32.697V20.991h2.128v11.706H153.433z"/>
	<path fill="#6B0B66" d="M167.435,32.261c-0.556,0.291-1.79,0.677-3.362,0.677c-3.531,0-5.829-2.394-5.829-5.974
		c0-3.604,2.467-6.215,6.288-6.215c1.258,0,2.37,0.314,2.951,0.604l-0.484,1.645c-0.508-0.29-1.306-0.556-2.467-0.556
		c-2.685,0-4.136,1.983-4.136,4.426c0,2.708,1.742,4.377,4.063,4.377c1.209,0,2.007-0.314,2.612-0.581L167.435,32.261z"/>
	<path fill="#6B0B66" d="M169.633,30.52c0.629,0.411,1.742,0.847,2.806,0.847c1.548,0,2.273-0.774,2.273-1.741
		c0-1.016-0.604-1.572-2.177-2.153c-2.104-0.75-3.096-1.911-3.096-3.313c0-1.886,1.524-3.434,4.039-3.434
		c1.185,0,2.225,0.338,2.878,0.726L175.824,23c-0.459-0.29-1.306-0.677-2.394-0.677c-1.258,0-1.959,0.726-1.959,1.596
		c0,0.967,0.701,1.403,2.225,1.983c2.031,0.774,3.071,1.79,3.071,3.531c0,2.056-1.596,3.507-4.377,3.507
		c-1.282,0-2.467-0.314-3.289-0.798L169.633,30.52z"/>
</g>
<g>
	<path fill="#6B0B66" d="M288.664,218.559h5.085v1.022h-3.866v3.138h3.572v1.008h-3.572V228h-1.219V218.559z"/>
	<path fill="#6B0B66" d="M295.693,224.834c0.028,1.667,1.092,2.354,2.325,2.354c0.882,0,1.415-0.154,1.877-0.351l0.21,0.882
		c-0.434,0.196-1.176,0.42-2.255,0.42c-2.087,0-3.334-1.373-3.334-3.418s1.205-3.656,3.18-3.656c2.213,0,2.802,1.947,2.802,3.193
		c0,0.252-0.028,0.448-0.042,0.575L295.693,224.834L295.693,224.834z M299.307,223.952c0.014-0.784-0.322-2.003-1.709-2.003
		c-1.247,0-1.793,1.148-1.891,2.003H299.307z"/>
	<path fill="#6B0B66" d="M301.964,228c0.028-0.462,0.056-1.148,0.056-1.751v-8.194h1.219v4.258h0.028
		c0.435-0.756,1.219-1.246,2.312-1.246c1.681,0,2.872,1.399,2.857,3.459c0,2.424-1.527,3.629-3.04,3.629
		c-0.98,0-1.765-0.379-2.269-1.275h-0.042L303.029,228H301.964z M303.239,225.283c0,0.154,0.028,0.308,0.056,0.447
		c0.238,0.854,0.952,1.442,1.849,1.442c1.289,0,2.06-1.05,2.06-2.604c0-1.359-0.701-2.521-2.017-2.521
		c-0.841,0-1.625,0.574-1.877,1.514c-0.028,0.14-0.07,0.308-0.07,0.504L303.239,225.283L303.239,225.283z"/>
	<path fill="#6B0B66" d="M309.986,223.335c0-0.798-0.014-1.485-0.056-2.114h1.079l0.042,1.33h0.056
		c0.308-0.91,1.051-1.484,1.877-1.484c0.14,0,0.238,0.014,0.351,0.041v1.164c-0.126-0.028-0.252-0.043-0.42-0.043
		c-0.869,0-1.485,0.658-1.653,1.584c-0.028,0.168-0.056,0.363-0.056,0.574V228h-1.219L309.986,223.335L309.986,223.335z"/>
	<path fill="#6B0B66" d="M320.237,226.15c0,0.701,0.014,1.317,0.056,1.85h-1.092l-0.07-1.105h-0.028
		c-0.322,0.545-1.037,1.26-2.241,1.26c-1.064,0-2.339-0.588-2.339-2.969v-3.965h1.233v3.754c0,1.289,0.392,2.157,1.513,2.157
		c0.826,0,1.401-0.573,1.625-1.121c0.07-0.182,0.112-0.405,0.112-0.63v-4.16h1.233v4.93H320.237z"/>
	<path fill="#6B0B66" d="M326.032,228l-0.098-0.854h-0.042c-0.378,0.531-1.107,1.008-2.073,1.008c-1.373,0-2.073-0.967-2.073-1.946
		c0-1.64,1.457-2.535,4.076-2.521v-0.141c0-0.561-0.154-1.568-1.541-1.568c-0.63,0-1.289,0.195-1.765,0.504l-0.28-0.812
		c0.561-0.363,1.373-0.602,2.227-0.602c2.073,0,2.578,1.414,2.578,2.772v2.535c0,0.588,0.028,1.163,0.112,1.625L326.032,228
		L326.032,228z M325.85,224.54c-1.345-0.028-2.871,0.21-2.871,1.526c0,0.799,0.532,1.178,1.163,1.178
		c0.882,0,1.442-0.561,1.639-1.135c0.042-0.127,0.07-0.267,0.07-0.393L325.85,224.54L325.85,224.54z"/>
	<path fill="#6B0B66" d="M329.026,223.335c0-0.798-0.014-1.485-0.056-2.114h1.079l0.042,1.33h0.056
		c0.308-0.91,1.051-1.484,1.877-1.484c0.14,0,0.238,0.014,0.351,0.041v1.164c-0.126-0.028-0.252-0.043-0.42-0.043
		c-0.869,0-1.485,0.658-1.653,1.584c-0.028,0.168-0.056,0.363-0.056,0.574V228h-1.219L329.026,223.335L329.026,223.335z"/>
	<path fill="#6B0B66" d="M334.402,221.221l1.485,4.006c0.154,0.447,0.322,0.979,0.434,1.387h0.028
		c0.126-0.406,0.266-0.924,0.434-1.415l1.345-3.978h1.303l-1.849,4.832c-0.882,2.326-1.485,3.516-2.325,4.245
		c-0.602,0.532-1.205,0.742-1.513,0.798l-0.308-1.037c0.308-0.098,0.714-0.293,1.079-0.602c0.336-0.268,0.756-0.743,1.037-1.373
		c0.056-0.126,0.098-0.225,0.098-0.294c0-0.07-0.028-0.168-0.084-0.322l-2.507-6.248L334.402,221.221L334.402,221.221z"/>
</g>
<g>
	<path fill="#6B0B66" d="M515.621,223.854c-0.07-1.315-0.154-2.898-0.141-4.076h-0.043c-0.321,1.107-0.714,2.283-1.189,3.587
		l-1.667,4.581h-0.925l-1.527-4.496c-0.447-1.331-0.826-2.551-1.092-3.67h-0.028c-0.028,1.177-0.099,2.76-0.183,4.174L508.574,228
		h-1.162l0.658-9.441h1.555l1.611,4.566c0.393,1.163,0.715,2.199,0.951,3.18h0.043c0.237-0.953,0.573-1.988,0.993-3.18l1.683-4.566
		h1.555l0.588,9.441h-1.189L515.621,223.854z"/>
	<path fill="#6B0B66" d="M522.716,228l-0.098-0.854h-0.042c-0.379,0.531-1.107,1.008-2.073,1.008c-1.373,0-2.073-0.967-2.073-1.946
		c0-1.64,1.457-2.535,4.076-2.521v-0.141c0-0.561-0.154-1.568-1.541-1.568c-0.63,0-1.289,0.195-1.765,0.504l-0.28-0.812
		c0.561-0.363,1.373-0.602,2.227-0.602c2.074,0,2.578,1.414,2.578,2.772v2.535c0,0.588,0.027,1.163,0.111,1.625L522.716,228
		L522.716,228z M522.534,224.54c-1.345-0.028-2.872,0.21-2.872,1.526c0,0.799,0.533,1.178,1.163,1.178
		c0.882,0,1.441-0.561,1.639-1.135c0.042-0.127,0.07-0.267,0.07-0.393V224.54z"/>
	<path fill="#6B0B66" d="M525.71,223.335c0-0.798-0.014-1.485-0.056-2.114h1.078l0.042,1.33h0.056
		c0.309-0.91,1.051-1.484,1.877-1.484c0.141,0,0.238,0.014,0.351,0.041v1.164c-0.126-0.028-0.252-0.043-0.42-0.043
		c-0.867,0-1.484,0.658-1.652,1.584c-0.027,0.168-0.057,0.363-0.057,0.574V228h-1.219V223.335z"/>
	<path fill="#6B0B66" d="M534.98,227.748c-0.322,0.168-1.036,0.393-1.947,0.393c-2.045,0-3.375-1.388-3.375-3.461
		c0-2.087,1.428-3.6,3.642-3.6c0.729,0,1.372,0.182,1.709,0.352l-0.28,0.951c-0.294-0.168-0.756-0.322-1.429-0.322
		c-1.555,0-2.396,1.149-2.396,2.563c0,1.569,1.009,2.536,2.354,2.536c0.7,0,1.162-0.182,1.513-0.336L534.98,227.748z"/>
	<path fill="#6B0B66" d="M536.42,218.055h1.232v4.23h0.027c0.196-0.352,0.505-0.659,0.883-0.869c0.364-0.21,0.799-0.35,1.262-0.35
		c0.91,0,2.367,0.56,2.367,2.898V228h-1.232v-3.895c0-1.092-0.406-2.017-1.569-2.017c-0.798,0-1.429,0.56-1.652,1.231
		c-0.07,0.169-0.084,0.352-0.084,0.589V228h-1.232L536.42,218.055L536.42,218.055z"/>
</g>
<g>
	<g>
		<path fill="#6B0B66" d="M775.6,323.5c1.936,0,1.936-3,0-3C773.665,320.5,773.665,323.5,775.6,323.5L775.6,323.5z"/>
	</g>
</g>
<circle fill="#F7DB15" cx="65.6" cy="176" r="4"/>
<circle fill="#F7DB15" cx="101.6" cy="158" r="4"/>
<circle fill="#F7DB15" cx="148.6" cy="150" r="4"/>
<circle fill="#F7DB15" cx="170.6" cy="117" r="4"/>
<circle fill="#F7DB15" cx="210.6" cy="96" r="4"/>
<circle fill="#F7DB15" cx="265.6" cy="76" r="4"/>
<circle fill="#F7DB15" cx="310.6" cy="86" r="4"/>
<circle fill="#F7DB15" cx="356.6" cy="78" r="4"/>
<circle fill="#F7DB15" cx="402.6" cy="91" r="4"/>
<circle fill="#F7DB15" cx="451.6" cy="97" r="4"/>
<circle fill="#F7DB15" cx="489.6" cy="76" r="4"/>
<circle fill="#F7DB15" cx="535.6" cy="86" r="4"/>
<circle fill="#F7DB15" cx="576.6" cy="70" r="4"/>
<polyline fill="none" stroke="#F7DB15" stroke-miterlimit="10" points="65.6,176 101.6,158 148.6,150 170.6,117 210.6,96 265.6,76 
	310.6,86 356.6,78 402.6,91 451.6,97 489.6,76 535.6,86 576.6,70 "/>
<path fill="none" stroke="#6B0B66" stroke-width="25" stroke-miterlimit="10" d="M736.6,60c-41.974,0-76,34.026-76,76
	c0,41.975,34.026,76,76,76c41.975,0,76-34.025,76-76c0-10.042-1.946-19.63-5.484-28.405l-0.641-1.72"/>
<path fill="none" stroke="#F919BA" stroke-width="25" stroke-miterlimit="10" d="M736.6,60c31.48,0,58.49,19.14,70.027,46.417"/>
<g>
	<path fill="#6B0B66" d="M716.512,136v-8.083h1.14l2.591,4.09c0.6,0.947,1.066,1.8,1.451,2.626l0.023-0.012
		c-0.097-1.079-0.121-2.062-0.121-3.322v-3.382h0.984V136h-1.056l-2.566-4.102c-0.563-0.9-1.104-1.823-1.511-2.699l-0.037,0.012
		c0.061,1.02,0.084,1.991,0.084,3.334V136H716.512z"/>
	<path fill="#6B0B66" d="M724.959,133.29c0.023,1.427,0.936,2.015,1.99,2.015c0.756,0,1.212-0.132,1.606-0.3l0.181,0.756
		c-0.371,0.169-1.008,0.36-1.932,0.36c-1.787,0-2.854-1.176-2.854-2.928c0-1.75,1.031-3.129,2.723-3.129
		c1.896,0,2.398,1.666,2.398,2.733c0,0.216-0.023,0.384-0.036,0.492H724.959z M728.053,132.534c0.014-0.671-0.274-1.716-1.463-1.716
		c-1.066,0-1.535,0.983-1.619,1.716H728.053z"/>
	<path fill="#6B0B66" d="M730.803,130.195l0.769,2.949c0.168,0.647,0.323,1.248,0.432,1.848h0.036
		c0.132-0.588,0.324-1.211,0.516-1.835l0.948-2.962h0.887l0.9,2.902c0.216,0.694,0.384,1.307,0.516,1.895h0.035
		c0.097-0.588,0.252-1.2,0.444-1.883l0.827-2.914h1.044L736.284,136h-0.96l-0.888-2.771c-0.203-0.646-0.372-1.223-0.516-1.906
		h-0.024c-0.144,0.695-0.323,1.295-0.526,1.919L732.435,136h-0.96l-1.751-5.805H730.803z"/>
	<path fill="#6B0B66" d="M743.138,136l-2.639-8.083h1.128l1.259,3.981c0.349,1.092,0.647,2.076,0.863,3.022h0.024
		c0.228-0.935,0.562-1.955,0.924-3.01l1.367-3.994h1.114l-2.89,8.083H743.138z"/>
	<path fill="#6B0B66" d="M749.006,128.564c0.012,0.359-0.252,0.647-0.672,0.647c-0.371,0-0.636-0.288-0.636-0.647
		c0-0.373,0.275-0.66,0.66-0.66C748.754,127.904,749.006,128.191,749.006,128.564z M747.831,136v-5.805h1.055V136H747.831z"/>
	<path fill="#6B0B66" d="M750.495,134.92c0.312,0.204,0.863,0.42,1.392,0.42c0.769,0,1.127-0.384,1.127-0.863
		c0-0.504-0.3-0.779-1.078-1.067c-1.045-0.372-1.535-0.947-1.535-1.644c0-0.935,0.756-1.703,2.003-1.703
		c0.588,0,1.104,0.168,1.427,0.359l-0.264,0.768c-0.229-0.144-0.647-0.334-1.188-0.334c-0.623,0-0.971,0.359-0.971,0.791
		c0,0.479,0.348,0.695,1.103,0.983c1.009,0.384,1.523,0.888,1.523,1.751c0,1.02-0.791,1.739-2.171,1.739
		c-0.636,0-1.224-0.156-1.631-0.396L750.495,134.92z"/>
	<path fill="#6B0B66" d="M756.566,128.564c0.012,0.359-0.252,0.647-0.673,0.647c-0.37,0-0.636-0.288-0.636-0.647
		c0-0.373,0.276-0.66,0.66-0.66C756.314,127.904,756.566,128.191,756.566,128.564z M755.392,136v-5.805h1.056V136H755.392z"/>
	<path fill="#6B0B66" d="M759.47,128.527v1.668h1.513v0.803h-1.513v3.13c0,0.72,0.204,1.127,0.792,1.127
		c0.275,0,0.479-0.036,0.611-0.071l0.048,0.791c-0.203,0.084-0.527,0.145-0.936,0.145c-0.491,0-0.888-0.156-1.14-0.444
		c-0.3-0.312-0.408-0.827-0.408-1.511v-3.167h-0.898v-0.804h0.898v-1.392L759.47,128.527z"/>
	<path fill="#6B0B66" d="M767.352,133.05c0,2.146-1.486,3.082-2.891,3.082c-1.571,0-2.782-1.151-2.782-2.985
		c0-1.943,1.271-3.082,2.878-3.082C766.224,130.062,767.352,131.273,767.352,133.05z M762.746,133.109c0,1.271,0.73,2.23,1.763,2.23
		c1.008,0,1.763-0.947,1.763-2.255c0-0.983-0.49-2.229-1.737-2.229C763.285,130.855,762.746,132.006,762.746,133.109z"/>
	<path fill="#6B0B66" d="M768.688,132.006c0-0.684-0.014-1.271-0.05-1.811h0.925l0.035,1.139h0.049
		c0.264-0.779,0.898-1.271,1.606-1.271c0.12,0,0.204,0.013,0.3,0.037v0.996c-0.107-0.025-0.216-0.037-0.359-0.037
		c-0.743,0-1.271,0.564-1.415,1.355c-0.023,0.145-0.048,0.312-0.048,0.492V136h-1.043V132.006z"/>
	<path fill="#6B0B66" d="M772.467,134.92c0.312,0.204,0.863,0.42,1.393,0.42c0.768,0,1.127-0.384,1.127-0.863
		c0-0.504-0.301-0.779-1.079-1.067c-1.044-0.372-1.535-0.947-1.535-1.644c0-0.935,0.756-1.703,2.003-1.703
		c0.588,0,1.104,0.168,1.427,0.359l-0.264,0.768c-0.228-0.144-0.647-0.334-1.188-0.334c-0.622,0-0.971,0.359-0.971,0.791
		c0,0.479,0.349,0.695,1.104,0.983c1.008,0.384,1.522,0.888,1.522,1.751c0,1.02-0.791,1.739-2.171,1.739
		c-0.636,0-1.223-0.156-1.631-0.396L772.467,134.92z"/>
</g>
<g>
	<path fill="#6B0B66" d="M717.012,142.023c0.527-0.107,1.283-0.168,2.002-0.168c1.115,0,1.836,0.205,2.34,0.66
		c0.407,0.36,0.636,0.912,0.636,1.535c0,1.067-0.672,1.775-1.523,2.063v0.036c0.624,0.216,0.996,0.791,1.188,1.631
		c0.264,1.127,0.456,1.906,0.624,2.219h-1.079c-0.133-0.229-0.312-0.923-0.54-1.932c-0.24-1.114-0.672-1.534-1.619-1.57h-0.983V150
		h-1.043v-7.977H717.012z M718.055,145.707h1.067c1.115,0,1.823-0.611,1.823-1.535c0-1.043-0.756-1.5-1.859-1.511
		c-0.504,0-0.863,0.048-1.031,0.096V145.707z"/>
	<path fill="#6B0B66" d="M724.066,147.29c0.023,1.427,0.936,2.015,1.99,2.015c0.756,0,1.211-0.132,1.607-0.3l0.18,0.756
		c-0.372,0.169-1.008,0.36-1.931,0.36c-1.787,0-2.855-1.176-2.855-2.928c0-1.75,1.032-3.129,2.725-3.129
		c1.895,0,2.397,1.666,2.397,2.733c0,0.216-0.023,0.384-0.036,0.492H724.066z M727.161,146.534c0.012-0.671-0.276-1.716-1.463-1.716
		c-1.067,0-1.535,0.983-1.62,1.716H727.161z"/>
	<path fill="#6B0B66" d="M730.762,142.527v1.668h1.513v0.803h-1.513v3.13c0,0.72,0.204,1.127,0.792,1.127
		c0.275,0,0.479-0.036,0.611-0.071l0.048,0.791c-0.203,0.084-0.527,0.145-0.936,0.145c-0.491,0-0.888-0.156-1.14-0.444
		c-0.3-0.312-0.407-0.827-0.407-1.511v-3.167h-0.899v-0.804h0.899v-1.392L730.762,142.527z"/>
	<path fill="#6B0B66" d="M738.319,148.417c0,0.601,0.013,1.127,0.049,1.583h-0.937l-0.061-0.947h-0.023
		c-0.275,0.469-0.888,1.079-1.919,1.079c-0.912,0-2.003-0.503-2.003-2.542v-3.395h1.056v3.215c0,1.104,0.336,1.847,1.296,1.847
		c0.707,0,1.198-0.491,1.391-0.959c0.061-0.155,0.097-0.348,0.097-0.54v-3.562h1.056L738.319,148.417L738.319,148.417z"/>
	<path fill="#6B0B66" d="M740.075,146.006c0-0.684-0.013-1.271-0.049-1.811h0.924l0.036,1.139h0.048
		c0.264-0.779,0.898-1.271,1.606-1.271c0.12,0,0.204,0.013,0.301,0.037v0.996c-0.108-0.025-0.217-0.037-0.36-0.037
		c-0.743,0-1.271,0.564-1.415,1.355c-0.023,0.145-0.048,0.312-0.048,0.492V150h-1.043V146.006z"/>
	<path fill="#6B0B66" d="M744.047,145.766c0-0.6-0.013-1.091-0.049-1.57h0.936l0.062,0.959h0.022
		c0.288-0.553,0.96-1.092,1.919-1.092c0.805,0,2.052,0.479,2.052,2.471V150h-1.056v-3.346c0-0.937-0.349-1.715-1.344-1.715
		c-0.695,0-1.235,0.492-1.415,1.078c-0.048,0.133-0.072,0.312-0.072,0.492V150h-1.055V145.766z"/>
	<path fill="#6B0B66" d="M751.882,142.564c0.013,0.359-0.252,0.647-0.672,0.647c-0.371,0-0.636-0.288-0.636-0.647
		c0-0.373,0.275-0.66,0.66-0.66C751.63,141.904,751.882,142.191,751.882,142.564z M750.707,150v-5.805h1.055V150H750.707z"/>
	<path fill="#6B0B66" d="M753.515,145.766c0-0.6-0.013-1.091-0.049-1.57h0.937l0.061,0.959h0.023
		c0.288-0.553,0.96-1.092,1.919-1.092c0.804,0,2.051,0.479,2.051,2.471V150H757.4v-3.346c0-0.937-0.349-1.715-1.345-1.715
		c-0.694,0-1.234,0.492-1.415,1.078c-0.048,0.133-0.071,0.312-0.071,0.492V150h-1.056L753.515,145.766L753.515,145.766z"/>
	<path fill="#6B0B66" d="M765.176,144.195c-0.023,0.419-0.048,0.887-0.048,1.595v3.37c0,1.331-0.265,2.146-0.828,2.65
		c-0.562,0.527-1.379,0.695-2.109,0.695c-0.696,0-1.464-0.168-1.933-0.48l0.266-0.803c0.384,0.239,0.982,0.455,1.703,0.455
		c1.078,0,1.869-0.563,1.869-2.027v-0.647h-0.022c-0.324,0.54-0.947,0.972-1.847,0.972c-1.439,0-2.472-1.223-2.472-2.83
		c0-1.968,1.283-3.082,2.614-3.082c1.008,0,1.56,0.526,1.811,1.006h0.024l0.048-0.875h0.924V144.195z M764.084,146.486
		c0-0.18-0.012-0.336-0.06-0.479c-0.192-0.612-0.708-1.116-1.477-1.116c-1.007,0-1.727,0.853-1.727,2.195
		c0,1.141,0.575,2.087,1.715,2.087c0.646,0,1.235-0.407,1.463-1.079c0.061-0.18,0.084-0.384,0.084-0.563L764.084,146.486
		L764.084,146.486z"/>
</g>
<circle fill="#F918BA" cx="706.1" cy="132" r="4.5"/>
<circle fill="#6B0B66" cx="706.1" cy="147" r="4.5"/>
</svg>
